<?xml version="1.0" encoding="utf-8"?>
<!-- Generator: Adobe Illustrator 16.0.0, SVG Export Plug-In . SVG Version: 6.00 Build 0)  -->
<!DOCTYPE svg PUBLIC "-//W3C//DTD SVG 1.1//EN" "http://www.w3.org/Graphics/SVG/1.1/DTD/svg11.dtd">
<svg version="1.1" id="Layer_1" xmlns="http://www.w3.org/2000/svg" xmlns:xlink="http://www.w3.org/1999/xlink" x="0px" y="0px"
	 width="24px" height="24px" viewBox="0 0 24 24" enable-background="new 0 0 24 24" xml:space="preserve">
<g>
	<path fill="#FFFFFF" d="M24,12c0,6.631-5.371,12-12,12S0,18.631,0,12S5.371,0,12,0S24,5.369,24,12z"/>
	<path fill="#353B41" d="M22.63,12c0,5.874-4.755,10.63-10.629,10.63S1.37,17.874,1.37,12C1.37,6.126,6.126,1.37,12,1.37
		S22.63,6.126,22.63,12z"/>
	<g>
		<polygon fill="#F2F2F2" points="14.662,9.339 14.662,4.896 9.339,4.896 9.339,9.339 4.897,9.339 4.897,14.66 9.339,14.66 
			9.339,19.103 14.662,19.103 14.662,14.66 19.104,14.66 19.104,9.339 		"/>
		<polygon fill="#0F8A57" points="12.891,11.109 14.662,9.339 14.662,4.896 9.339,4.896 9.339,9.339 4.897,9.339 4.897,14.66 
			9.339,14.66 11.11,12.891 		"/>
	</g>
</g>
</svg>
